<svg xmlns="http://www.w3.org/2000/svg" width="50" height="10" viewBox="0 0 50 10"><g><g><path fill="#999" d="M45.838.548C45.369.37 44.836.293 44.29.277l-.111-.014c-1.742-.172-3.412.374-4.834 1.085-.816.408-1.58.863-2.34 1.323-2.67 1.462-5.733 3.163-9.107 2.92-1.977-.14-3.896-1.431-2.75-2.962.783-1.046 3.015-1.273 3.708-.058.332.583-.218 1.092-.857 1.327-1.383.532-1.886-1.184-.754-1.157.564.014.855.461.394.769 1.13-.53-.46-1.439-1.298-.605-.826.82.564 1.445 1.569 1.26 1.192-.22 1.808-1.053 1.316-1.918-.575-1.008-2.387-.846-3.41-.45-1.08.418-1.687 1.329-1.501 2.227.254 1.23 2.358 1.735 3.732 1.834 1.045.075 2.08-.05 3.09-.303-2.004.708-4.135 1.22-6.316 1.438-2.414.24-5.609.136-7.212-1.467-.769-.769-1.195-1.421-1.286-2.417-.038-.427.065-.817.298-1.203.232-.385.846-1.456-.379-1.306-.397.048-.697.418-.878.657-1.74 2.285 1.456 4.89 4.182 5.592 3.611.93 7.757.064 11.133-1.012a29.892 29.892 0 0 0 5.11-2.16c.27-.146.535-.3.797-.458C32.19 6.448 25.93 9.444 19.642 9.247c-2.921-.092-6.225-1.241-7.33-3.41-.474-.931-.487-2.14-.138-3.089.215-.586.57-1.061.948-1.586.665-.919-.711-.976-1.329-.356-.582.582-.917 1.351-1.03 2.07-.201 1.26.302 3.146 1.644 4.023-1.025-.67-1.921-1.452-2.78-2.294C8.381 3.386 7.371 2.12 5.333 1.658 2.567 1.03-1 2.78.53 5.1c1.153 1.749 4.767 1.263 5.477-.494.325-.804-.918-1.563-1.894-1.413-1.374.212-1.67 1.373-.293 1.686-1.389-.362.069-2.018 1.328-1.124.48.34.449.813.186 1.224-.717 1.12-2.749 1.24-3.86.466C.842 5.006.612 4.318.656 3.691c.083-1.2 1.73-1.796 3.106-1.903 2.853-.221 4.413 2.022 5.911 3.465 1.372 1.32 2.944 2.416 4.943 3.157.019.006.041.01.065.011 3.404 1.578 7.856 1.16 11.456.181 4.738-1.289 8.61-3.787 12.244-6.337C40.16 1.015 42.885 0 45.339.686c1.165.327 1.46 1.268 1.13 2.089-.359.892-1.724 1.304-2.849 1.188-.548-.055-1-.251-1.125-.689-.077-.27.066-.888.535-.954-.981.137-1.114 1.134-.424 1.564 2.216 1.383 5.948-.915 4.176-2.733-.01-.011-.023-.02-.034-.031.943.446 1.699 1.07 2.03 1.822.326.736.074 1.5-.463 2.145-.682.816-1.98 1.34-3.223 1.443-1.08.09-2.85-.371-3.187-1.266.328.871 1.181 1.462 2.381 1.603 3.126.367 5.747-1.643 4.99-4.026-.379-1.19-1.895-1.914-3.438-2.293z"/></g></g></svg>