<svg xmlns="http://www.w3.org/2000/svg" width="142" height="28" viewBox="0 0 142 28"><g><g><path fill="#999" d="M130.997 1.59c-1.34-.516-2.864-.74-4.427-.788-.105-.011-.213-.027-.318-.038-4.984-.498-9.76 1.085-13.83 3.145-2.334 1.183-4.52 2.504-6.693 3.84-7.64 4.237-16.403 9.17-26.055 8.468-5.655-.41-11.146-4.152-7.867-8.593 2.24-3.033 8.624-3.692 10.608-.167.95 1.69-.623 3.167-2.451 3.848-3.956 1.544-5.397-3.434-2.159-3.354 1.614.038 2.446 1.338 1.128 2.23 3.235-1.539-1.314-4.173-3.714-1.754-2.362 2.38 1.615 4.19 4.49 3.652 3.41-.635 5.173-3.055 3.764-5.561-1.645-2.923-6.829-2.453-9.757-1.305-3.088 1.212-4.824 3.852-4.293 6.457.729 3.57 6.747 5.034 10.676 5.32 2.99.216 5.951-.147 8.843-.879-5.733 2.054-11.832 3.536-18.07 4.168-6.908.696-16.047.396-20.634-4.253-2.198-2.228-3.42-4.12-3.678-7.01-.11-1.237.185-2.367.852-3.489.663-1.115 2.419-4.222-1.084-3.786-1.136.14-1.994 1.214-2.513 1.905-4.976 6.627 4.168 14.179 11.966 16.217 10.33 2.7 22.19.186 31.848-2.936 5.124-1.656 10.093-3.779 14.62-6.262.772-.423 1.53-.87 2.281-1.33-12.577 9.364-30.486 18.053-48.475 17.483-8.357-.267-17.809-3.6-20.97-9.89-1.356-2.7-1.393-6.208-.396-8.958.616-1.699 1.632-3.078 2.713-4.598C39.303.706 35.366.541 33.599 2.337c-1.664 1.69-2.622 3.92-2.948 6.004-.574 3.657.867 9.125 4.704 11.668-2.932-1.945-5.496-4.211-7.955-6.652-3.56-3.536-6.447-7.21-12.278-8.549C7.205 2.99-3 8.064 1.376 14.791c3.3 5.072 13.64 3.663 15.67-1.432.931-2.333-2.625-4.533-5.418-4.1-3.932.615-4.777 3.983-.839 4.89-3.972-1.05.197-5.85 3.8-3.26 1.372.987 1.283 2.36.531 3.55-2.05 3.25-7.862 3.595-11.042 1.353-1.808-1.273-2.466-3.27-2.342-5.087.239-3.483 4.949-5.21 8.887-5.52 8.161-.64 12.626 5.865 16.913 10.048 3.924 3.83 8.42 7.01 14.14 9.156.053.019.117.03.187.033 9.737 4.578 22.474 3.366 32.774.526 13.553-3.74 24.634-10.984 35.028-18.38C114.759 2.943 122.55 0 129.57 1.992c3.332.948 4.176 3.678 3.232 6.057-1.026 2.588-4.932 3.784-8.15 3.447-1.567-.16-2.862-.73-3.219-1.999-.22-.785.19-2.576 1.533-2.768-2.808.4-3.189 3.29-1.216 4.538 6.34 4.01 17.019-2.656 11.948-7.927-.03-.033-.065-.06-.098-.091 2.698 1.294 4.861 3.103 5.811 5.285.93 2.135.21 4.352-1.327 6.22-1.95 2.368-5.663 3.887-9.22 4.185-3.089.259-8.154-1.076-9.118-3.67.938 2.526 3.379 4.24 6.813 4.648 8.943 1.063 16.44-4.765 14.273-11.676-1.082-3.453-5.42-5.552-9.836-6.65z"/></g></g></svg>