<svg xmlns="http://www.w3.org/2000/svg" width="83" height="16" viewBox="0 0 83 16"><g><g><path fill="#999" d="M76.93.932c-.79-.303-1.687-.434-2.608-.463-.062-.006-.126-.015-.187-.022-2.936-.291-5.75.636-8.146 1.844-1.375.693-2.663 1.468-3.943 2.25-4.5 2.485-9.662 5.377-15.348 4.965-3.33-.241-6.565-2.434-4.634-5.037 1.32-1.778 5.08-2.165 6.249-.098.56.99-.367 1.856-1.444 2.256-2.33.904-3.179-2.014-1.272-1.967.951.023 1.441.784.665 1.307 1.905-.902-.774-2.445-2.188-1.027-1.391 1.394.951 2.455 2.645 2.14 2.008-.372 3.047-1.79 2.217-3.26-.969-1.713-4.022-1.438-5.747-.764-1.819.71-2.842 2.257-2.529 3.784.43 2.094 3.974 2.951 6.289 3.119 1.761.127 3.505-.086 5.209-.515-3.378 1.204-6.97 2.073-10.644 2.443-4.07.408-9.453.232-12.155-2.493-1.294-1.307-2.014-2.416-2.166-4.11-.065-.724.109-1.387.501-2.044.391-.654 1.426-2.475-.638-2.22-.669.082-1.174.711-1.48 1.117-2.93 3.884 2.455 8.312 7.048 9.506 6.086 1.583 13.071.11 18.76-1.72a50.167 50.167 0 0 0 8.612-3.671c.455-.249.901-.51 1.344-.78C53.93 10.96 43.382 16.054 32.786 15.72c-4.923-.156-10.49-2.11-12.352-5.798-.8-1.582-.821-3.638-.234-5.25.363-.997.962-1.805 1.598-2.696 1.12-1.563-1.199-1.66-2.24-.607-.98.99-1.544 2.299-1.736 3.52-.339 2.144.51 5.349 2.77 6.84-1.727-1.14-3.237-2.47-4.685-3.9-2.097-2.072-3.798-4.226-7.233-5.01C4.011 1.751-2 4.726.578 8.668c1.943 2.974 8.034 2.149 9.23-.838.548-1.368-1.546-2.658-3.192-2.403-2.316.36-2.814 2.334-.494 2.866-2.34-.616.116-3.43 2.239-1.911.808.578.756 1.383.312 2.081-1.207 1.905-4.63 2.107-6.504.793C1.104 8.511.716 7.34.789 6.274.93 4.234 3.706 3.221 6.026 3.04c4.807-.375 7.436 3.438 9.962 5.89 2.311 2.245 4.96 4.11 8.329 5.368.031.01.069.017.11.019 5.736 2.683 13.238 1.973 19.306.308 7.983-2.192 14.51-6.439 20.632-10.774 3-2.126 7.59-3.851 11.726-2.684 1.963.556 2.46 2.157 1.904 3.551-.605 1.517-2.905 2.218-4.8 2.021-.924-.095-1.687-.427-1.897-1.172-.13-.46.111-1.51.903-1.623-1.654.235-1.879 1.929-.716 2.66 3.734 2.352 10.024-1.556 7.037-4.646-.017-.02-.038-.036-.057-.054 1.589.759 2.863 1.82 3.423 3.098.547 1.252.123 2.552-.782 3.646-1.149 1.389-3.336 2.28-5.431 2.454-1.82.152-4.803-.631-5.37-2.152.552 1.481 1.99 2.486 4.012 2.726 5.268.622 9.684-2.794 8.407-6.845-.637-2.025-3.193-3.255-5.793-3.898z"/></g></g></svg>